# xmcd CD database file
#
# Track frame offsets:
#	150
#	14995
#	27938
#	40352
#	53079
#	67971
#	81637
#	93594
#	108055
#	122144
#	134356
#	146596
#	161116
#	171804
#	182617
#	195515
#	207666
#	222235
#	240699
#	254643
#	268660
#
# Disc length: 3752 seconds
#
# Revision: 0
# Processed by: cddbd v1.5.1PL0 Copyright (c) Steve Scherf et al.
# Submitted via: CDex 1.51
#
DISCID=430ea615
DTITLE=Dolly Parton - The Best Of
DYEAR=1997
DGENRE=Country
TTITLE0=Dolly Parton - We Used To
TTITLE1=Dolly Parton - 9 To 5
TTITLE2=Dolly Parton - Bobby's Arms
TTITLE3=Dolly Parton - Divorce
TTITLE4=Dolly Parton - Harper Valley P.T.A.
TTITLE5=Dolly Parton - Here You Come Again
TTITLE6=Dolly Parton - Hold Me
TTITLE7=Dolly Parton - I Really Got The Feeling
TTITLE8=Dolly Parton - I Will Always Love You
TTITLE9=Dolly Parton - It's My Time
TTITLE10=Dolly Parton - Jolene
TTITLE11=Dolly Parton - Lonely Comin' Down
TTITLE12=Dolly Parton - Love Is Like a Butterfly
TTITLE13=Dolly Parton - Lovin' you
TTITLE14=Dolly Parton - mama say a prayer
TTITLE15=Dolly Parton - Me and Little Andy
TTITLE16=Dolly Parton - Sweet Music Man
TTITLE17=Dolly Parton - The House Of The Rising Sun
TTITLE18=Dolly Parton - The seeker
TTITLE19=Dolly Parton - Two Doors Down
TTITLE20=Dolly Parton - Do I Ever Cross Your Mind
EXTD=YEAR: 1997
EXTT0=
EXTT1=
EXTT2=
EXTT3=
EXTT4=
EXTT5=
EXTT6=
EXTT7=
EXTT8=
EXTT9=
EXTT10=
EXTT11=
EXTT12=
EXTT13=
EXTT14=
EXTT15=
EXTT16=
EXTT17=
EXTT18=
EXTT19=
EXTT20=
PLAYORDER=
